<?xml version="1.0" encoding="utf-8"?>
<!-- Generator: Adobe Illustrator 16.0.0, SVG Export Plug-In . SVG Version: 6.00 Build 0)  -->
<!DOCTYPE svg PUBLIC "-//W3C//DTD SVG 1.1//EN" "http://www.w3.org/Graphics/SVG/1.1/DTD/svg11.dtd">
<svg version="1.1" id="Layer_1" xmlns="http://www.w3.org/2000/svg" xmlns:xlink="http://www.w3.org/1999/xlink" x="0px" y="0px"
	 width="69.97px" height="70px" viewBox="25 5 69.97 70" enable-background="new 25 5 69.97 70" xml:space="preserve">
<circle fill="#222222" cx="60.008" cy="40.008" r="8.336"/>
<path fill="#222222" d="M80.484,39.984c0-0.516,0-1.109,0.016-1.781c0.047-3.984,0.109-10.141-1.016-12.969
	c-0.422-1.078-1.063-2.047-1.875-2.875v0.031c-0.813-0.813-1.797-1.453-2.875-1.875c-2.828-1.109-9-1.063-12.984-1.016
	c-0.641,0-1.234,0.016-1.75,0.016s-1.125,0-1.781-0.016c-3.984-0.047-10.125-0.109-12.953,1.016
	c-1.078,0.422-2.047,1.063-2.875,1.875s-1.453,1.797-1.875,2.875c-1.109,2.828-1.047,9.016-1.016,13
	c0,0.641,0.016,1.234,0.016,1.734s0,1.094-0.016,1.734c-0.031,3.984-0.094,10.172,1.016,13c0.422,1.078,1.063,2.047,1.875,2.875
	s1.797,1.453,2.875,1.875c2.828,1.109,9,1.063,12.984,1.016c0.641,0,1.234-0.016,1.75-0.016s1.125,0,1.781,0.016
	c3.984,0.047,10.125,0.109,12.953-1.016c1.078-0.422,2.047-1.063,2.875-1.875s1.453-1.797,1.875-2.875
	c1.125-2.813,1.063-8.969,1.016-12.969C80.5,41.109,80.484,40.5,80.484,39.984z M70.656,47.125
	c-3.936,5.885-11.896,7.467-17.781,3.531c-5.885-3.931-7.47-11.888-3.539-17.773s11.889-7.47,17.773-3.539h0.016
	C73.01,33.279,74.592,41.24,70.656,47.125z M76.109,27.781c-0.141,0.359-0.375,0.688-0.641,0.969s-0.609,0.5-0.969,0.656
	s-0.75,0.234-1.141,0.234c-0.594,0-1.172-0.172-1.656-0.5h-0.016c-0.484-0.328-0.875-0.797-1.109-1.344s-0.281-1.141-0.172-1.734
	s0.406-1.109,0.813-1.531s0.953-0.703,1.531-0.813s1.188-0.063,1.734,0.172s1.016,0.609,1.344,1.094s0.5,1.063,0.5,1.656
	C76.328,27.031,76.25,27.422,76.109,27.781z"/>
<path fill="#222222" d="M60,5C40.67,5,25,20.67,25,40s15.67,35,35,35s35-15.67,35-35S79.33,5,60,5z M80.781,60.766v0.016
	c-2.922,2.922-6.469,3.844-10.469,4.047c-4.125,0.234-16.5,0.234-20.625,0c-4-0.203-7.547-1.125-10.469-4.047
	s-3.844-6.469-4.031-10.469c-0.234-4.125-0.234-16.5,0-20.625c0.203-4,1.109-7.547,4.031-10.469s6.484-3.844,10.469-4.031
	c4.125-0.234,16.5-0.234,20.625,0c4,0.203,7.547,1.109,10.469,4.031s3.844,6.469,4.031,10.469c0.234,4.109,0.234,16.469,0,20.609
	C84.609,54.297,83.703,57.844,80.781,60.766z"/>
</svg>
