<?xml version="1.0" encoding="utf-8"?>
<!-- Generator: Adobe Illustrator 16.0.0, SVG Export Plug-In . SVG Version: 6.00 Build 0)  -->
<!DOCTYPE svg PUBLIC "-//W3C//DTD SVG 1.1//EN" "http://www.w3.org/Graphics/SVG/1.1/DTD/svg11.dtd">
<svg version="1.1" id="Layer_1" xmlns="http://www.w3.org/2000/svg" xmlns:xlink="http://www.w3.org/1999/xlink" x="0px" y="0px"
	 width="80px" height="80px" viewBox="20 0 80 80" enable-background="new 20 0 80 80" xml:space="preserve">
<path fill="#222222" d="M100,40c0-22.094-17.906-40-40-40S20,17.906,20,40c0,18.75,12.922,34.5,30.344,38.828V52.219h-8.25V40h8.25
	v-5.266c0-13.609,6.156-19.922,19.531-19.922c2.531,0,6.906,0.5,8.703,1v11.063c-0.938-0.094-2.578-0.156-4.625-0.156
	c-6.563,0-9.094,2.484-9.094,8.938V40h13.063l-2.25,12.219H64.844v27.484C84.656,77.313,100,60.453,100,40L100,40z"/>
</svg>
