<?xml version="1.0" encoding="utf-8"?>
<!-- Generator: Adobe Illustrator 16.0.0, SVG Export Plug-In . SVG Version: 6.00 Build 0)  -->
<!DOCTYPE svg PUBLIC "-//W3C//DTD SVG 1.1//EN" "http://www.w3.org/Graphics/SVG/1.1/DTD/svg11.dtd">
<svg version="1.1" id="Layer_1" xmlns="http://www.w3.org/2000/svg" xmlns:xlink="http://www.w3.org/1999/xlink" x="0px" y="0px"
	 width="135px" height="90px" viewBox="328.5 15 135 90" enable-background="new 328.5 15 135 90" xml:space="preserve">
<path fill="#FFFFFF" d="M328.5,30c0-8.273,6.727-15,15-15h60c8.273,0,15,6.727,15,15v60c0,8.273-6.727,15-15,15h-60
	c-8.273,0-15-6.727-15-15V30z M459.539,23.391c2.438,1.313,3.961,3.844,3.961,6.609v60c0,2.766-1.523,5.297-3.961,6.609
	s-5.391,1.172-7.711-0.375l-22.5-15L426,79.008V75V45v-4.008l3.328-2.227l22.5-15C454.125,22.242,457.078,22.078,459.539,23.391z"/>
</svg>
